<?xml version="1.0" standalone="no"?>
<!DOCTYPE svg PUBLIC "-//W3C//DTD SVG 20010904//EN"
 "http://www.w3.org/TR/2001/REC-SVG-20010904/DTD/svg10.dtd">
<svg version="1.0" xmlns="http://www.w3.org/2000/svg"
 width="228.000000pt" height="74.000000pt" viewBox="0 0 228.000000 74.000000"
 preserveAspectRatio="xMidYMid meet">
<metadata>
Created by potrace 1.10, written by Peter Selinger 2001-2011
</metadata>
<g transform="translate(0.000000,74.000000) scale(0.100000,-0.100000)"
fill="#000000" stroke="none">
<path d="M1730 495 c-30 -32 -15 -49 22 -26 22 14 24 19 14 34 -12 15 -15 15
-36 -8z"/>
<path d="M375 390 l0 -100 73 0 c70 0 72 1 72 25 0 22 -3 24 -47 22 l-47 -2 1
78 c1 77 1 77 -26 77 l-26 0 0 -100z"/>
<path d="M785 390 l0 -100 46 0 c82 0 113 19 132 82 9 27 -12 86 -36 103 -13
9 -44 15 -82 15 l-60 0 0 -100z m115 51 c8 -6 14 -25 14 -46 0 -41 -22 -65
-61 -65 -21 0 -23 4 -23 60 0 59 1 60 28 60 15 0 34 -4 42 -9z"/>
<path d="M1170 390 c0 -99 0 -100 24 -100 25 0 25 1 25 100 0 100 0 100 -24
100 -25 0 -25 0 -25 -100z"/>
<path d="M1443 435 c-73 -31 -51 -145 28 -145 38 0 69 16 69 35 0 18 -23 19
-49 3 -15 -9 -23 -9 -35 1 -26 22 -19 26 39 23 49 -3 55 -2 55 16 0 25 -34 68
-58 74 -11 3 -33 0 -49 -7z m55 -42 c2 -9 -7 -13 -27 -13 -23 0 -29 4 -24 16
6 17 44 15 51 -3z"/>
<path d="M558 429 c-10 -5 -18 -14 -18 -19 0 -13 33 -17 51 -6 9 5 25 6 35 1
16 -6 12 -10 -22 -19 -55 -15 -76 -33 -68 -60 10 -30 21 -35 86 -34 l58 1 0
54 c0 77 -11 93 -63 93 -23 0 -50 -5 -59 -11z m72 -89 c-12 -23 -50 -27 -50
-6 0 15 15 24 43 25 15 1 16 -2 7 -19z"/>
<path d="M990 377 c0 -36 5 -68 12 -75 15 -15 61 -15 76 0 9 9 12 9 12 0 0 -7
11 -12 25 -12 24 0 25 2 25 75 0 73 -1 75 -25 75 -23 0 -25 -4 -25 -44 0 -45
-19 -73 -43 -63 -11 4 -13 19 -9 56 4 50 4 51 -22 51 -25 0 -26 -2 -26 -63z"/>
<path d="M1260 420 c-12 -12 -20 -33 -20 -55 0 -69 78 -101 130 -53 l24 22
-25 6 c-15 4 -28 1 -35 -9 -15 -20 -42 -7 -50 24 -10 40 38 79 52 41 7 -17 44
-9 44 10 0 35 -88 46 -120 14z"/>
<path d="M1570 365 c0 -74 0 -75 25 -75 24 0 26 3 24 43 -3 52 5 67 35 67 15
0 26 7 29 20 4 16 0 20 -22 20 -15 0 -33 -6 -40 -12 -11 -10 -13 -10 -7 0 5 8
-1 12 -18 12 -26 0 -26 -1 -26 -75z"/>
<path d="M1710 365 c0 -73 1 -75 25 -75 24 0 25 2 25 75 0 73 -1 75 -25 75
-24 0 -25 -2 -25 -75z"/>
<path d="M1810 423 l-24 -17 24 -7 c14 -3 31 -2 37 4 13 10 43 3 43 -10 0 -4
-13 -9 -30 -10 -44 -3 -70 -21 -70 -47 0 -35 18 -44 86 -44 l60 0 -4 62 c-2
33 -9 67 -14 74 -15 18 -80 15 -108 -5z m80 -72 c0 -16 -30 -33 -47 -26 -17 6
-17 7 1 21 22 16 46 19 46 5z"/>
</g>
</svg>
