<?xml version="1.0" standalone="no"?>
<!DOCTYPE svg PUBLIC "-//W3C//DTD SVG 20010904//EN"
 "http://www.w3.org/TR/2001/REC-SVG-20010904/DTD/svg10.dtd">
<svg version="1.0" xmlns="http://www.w3.org/2000/svg"
 width="228.000000pt" height="74.000000pt" viewBox="0 0 228.000000 74.000000"
 preserveAspectRatio="xMidYMid meet">
<metadata>
Created by potrace 1.13, written by Peter Selinger 2001-2015
</metadata>
<g transform="translate(0.000000,74.000000) scale(0.100000,-0.100000)"
fill="#000000" stroke="none">
<path d="M790 390 l0 -100 44 0 c79 0 110 19 129 82 9 27 -12 86 -36 103 -13
9 -44 15 -79 15 l-58 0 0 -100z"/>
<path d="M554 423 c-15 -16 -15 -17 2 -24 11 -4 23 -3 29 2 12 12 45 12 45 0
0 -5 -15 -13 -32 -16 -37 -8 -68 -31 -68 -51 0 -29 30 -43 90 -42 l60 1 0 54
c0 77 -11 93 -65 93 -28 0 -50 -6 -61 -17z"/>
<path d="M992 373 c3 -64 5 -68 31 -77 20 -7 34 -7 47 2 12 7 20 8 20 2 0 -5
11 -10 25 -10 24 0 25 2 25 75 0 73 -1 75 -25 75 -23 0 -25 -4 -25 -43 0 -43
-13 -67 -37 -67 -9 0 -13 17 -13 55 0 52 -1 55 -25 55 -26 0 -26 -1 -23 -67z"/>
<path d="M1420 420 c-12 -12 -20 -33 -20 -55 0 -45 29 -75 73 -75 44 0 77 23
59 42 -10 10 -16 10 -32 0 -16 -10 -25 -10 -43 0 -20 12 -17 13 36 16 65 3 73
19 36 66 -26 33 -79 36 -109 6z"/>
<path d="M1818 429 c-10 -5 -18 -14 -18 -18 0 -13 37 -20 48 -9 6 6 19 7 29 4
14 -6 7 -11 -32 -24 -38 -13 -51 -22 -53 -40 -6 -39 14 -51 79 -50 l59 1 0 61
c0 35 -5 67 -12 74 -15 15 -76 15 -100 1z"/>
</g>
</svg>
